{"title":"Universal Soldier Day Of Reckoning 2012 1080p BrRip x264 Dual-Au","uid":8072565,"size":2036986150,"categoryP":"video","categoryS":"hd___movies","magnet":"?xt=urn:btih:0b6d965f902523a744b1153892e09c586fbf2ef8&amp;dn=Universal+Soldier+Day+Of+Reckoning+2012+1080p+BrRip+x264+Dual-Au&amp;tr=udp%3A%2F%2Ftracker.openbittorrent.com%3A80&amp;tr=udp%3A%2F%2Fopen.demonii.com%3A1337&amp;tr=udp%3A%2F%2Ftracker.coppersurfer.tk%3A6969&amp;tr=udp%3A%2F%2Fexodus.desync.com%3A6969","seeders":0,"leechers":1,"uploader":"nimitmak","files":11,"time":1359307364,"description":"::General::\nComplete name: Universal Soldier Day Of Reckoning 2012 1080p BrRip x264 Dual-Audio [English 5.1-Hindi 5.1] NimitMak SilverRG\nFormat: Matroska\nFile size: 1.88 GiB\nDuration: 1h 53mn\nOverall Bitrate: 2370 Kbps\nLanguage: Dual-Audio [English 5.1 - Hindi 5.1]\nSub Title: English\nEncoder: NimitMak\n\n::IMDB INFO::\nIMDB Link:http://www.imdb.com/title/tt1659343/\nIMDB Rating:5.2/10\nRelease Date:4 January 2013 (India)\nGenre: Action | Sci-Fi | Thriller \n\n::Video::\nFormat/Info: Advanced Video Codec\nBitrate: 1730 Kbps\nWidth: 1920 pixels\nHeight: 816 pixels\nDisplay aspect ratio: 2.35:1\nFrame rate: 23.976 fps\n\n::Audio #1::\nID: 2\nFormat: AC-3\nFormat/Info: Audio Coding 3\nDuration: 1h 53mn\nBit rate mode: Constant\nBit rate: 256 Kbps\nChannel(s) : 6 channels\nChannel positions: Front: L C R, Side: L R, LFE\nSampling rate: 48.0 KHz\nBit depth: 16 bits\nCompression mode: Lossy\nStream size: 208 MiB (11%)\nTitle: Hindi - NimitMak SilverRG\n\n::Audio #2::\nID: 3\nFormat: AC-3\nFormat/Info: Audio Coding 3\nDuration: 1h 53mn\nBit rate mode: Constant\nBit rate: 384 Kbps\nChannel(s): 6 channels\nChannel positions: Front: L C R, Side: L R, LFE\nSampling rate: 48.0 KHz\nBit depth: 16 bits\nCompression mode: Lossy\nStream size: 312 MiB (16%)\nTitle: English - NimitMak SilverRG\n\n::Text::\nID: 4\nFormat : UTF-8\nCodec ID: S_TEXT/UTF8\nCodec ID/Info: UTF-8 Plain Text\nTitle: English - NimitMak SilverRG\n\nScreens : \n &lt;a href=&quot;\nhttp://i.imgbox.com/acdwnE5H&quot; rel=&quot;nofollow&quot; target=&quot;_NEW&quot;&gt;\nhttp://i.imgbox.com/acdwnE5H&lt;/a&gt; &lt;a href=&quot;\nhttp://i.imgbox.com/adbIxPmq&quot; rel=&quot;nofollow&quot; target=&quot;_NEW&quot;&gt;\nhttp://i.imgbox.com/adbIxPmq&lt;/a&gt; &lt;a href=&quot;\nhttp://i.imgbox.com/abdCDrjW&quot; rel=&quot;nofollow&quot; target=&quot;_NEW&quot;&gt;\nhttp://i.imgbox.com/abdCDrjW&lt;/a&gt; &lt;a href=&quot;\nhttp://i.imgbox.com/acg3x5G4&quot; rel=&quot;nofollow&quot; target=&quot;_NEW&quot;&gt;\nhttp://i.imgbox.com/acg3x5G4&lt;/a&gt; &lt;a href=&quot;\nhttp://i.imgbox.com/abuY4rTH&quot; rel=&quot;nofollow&quot; target=&quot;_NEW&quot;&gt;\nhttp://i.imgbox.com/abuY4rTH&lt;/a&gt; &lt;a href=&quot;\nhttp://i.imgbox.com/adwqE7xh&quot; rel=&quot;nofollow&quot; target=&quot;_NEW&quot;&gt;\nhttp://i.imgbox.com/adwqE7xh&lt;/a&gt; &lt;a href=&quot;\nhttp://i.imgbox.com/achl4Nff&quot; rel=&quot;nofollow&quot; target=&quot;_NEW&quot;&gt;\nhttp://i.imgbox.com/achl4Nff&lt;/a&gt; &lt;a href=&quot;\nhttp://i.imgbox.com/aduFZkr8&quot; rel=&quot;nofollow&quot; target=&quot;_NEW&quot;&gt;\nhttp://i.imgbox.com/aduFZkr8&lt;/a&gt; &lt;a href=&quot;\nhttp://i.imgbox.com/acj74eKP&quot; rel=&quot;nofollow&quot; target=&quot;_NEW&quot;&gt;\nhttp://i.imgbox.com/acj74eKP&lt;/a&gt; &lt;a href=&quot;\nhttp://i.imgbox.com/acsx3oIp&quot; rel=&quot;nofollow&quot; target=&quot;_NEW&quot;&gt;\nhttp://i.imgbox.com/acsx3oIp&lt;/a&gt; &lt;a href=&quot;\nhttp://i.imgbox.com/abiJ1ye8&quot; rel=&quot;nofollow&quot; target=&quot;_NEW&quot;&gt;\nhttp://i.imgbox.com/abiJ1ye8&lt;/a&gt; &lt;a href=&quot;\nhttp://i.imgbox.com/acnGy9fI&quot; rel=&quot;nofollow&quot; target=&quot;_NEW&quot;&gt;\nhttp://i.imgbox.com/acnGy9fI&lt;/a&gt;","torrent":{"xt":"urn:btih:0b6d965f902523a744b1153892e09c586fbf2ef8","amp;dn":"Universal+Soldier+Day+Of+Reckoning+2012+1080p+BrRip+x264+Dual-Au","amp;tr":["udp%3A%2F%2Ftracker.openbittorrent.com%3A80","udp%3A%2F%2Fopen.demonii.com%3A1337","udp%3A%2F%2Ftracker.coppersurfer.tk%3A6969","udp%3A%2F%2Fexodus.desync.com%3A6969"],"infoHash":"0b6d965f902523a744b1153892e09c586fbf2ef8","infoHashBuffer":{"type":"Buffer","data":[11,109,150,95,144,37,35,167,68,177,21,56,146,224,156,88,111,191,46,248]},"announce":[],"urlList":[]}}